<svg width="700" height="488" viewBox="0 0 700 488" fill="none" xmlns="http://www.w3.org/2000/svg">
<rect x="527.58" y="347.171" width="18.0025" height="104.225" transform="rotate(-90 527.58 347.171)" fill="#006D0B"/>
<rect x="520" y="270.918" width="41.9116" height="68.8549" fill="#006D0B"/>
<rect x="528.981" y="264.931" width="26.9432" height="44.9053" fill="#006D0B"/>
<rect x="546.943" y="273.912" width="5.98738" height="53.8864" fill="white"/>
<rect width="21.7924" height="104.225" transform="matrix(0 -1 -1 0 693.08 381.957)" fill="#006D0B"/>
<rect width="41.9116" height="56.8801" transform="matrix(-1 0 0 1 699.621 318.817)" fill="#006D0B"/>
<rect width="26.9432" height="38.918" transform="matrix(-1 0 0 1 690.64 312.83)" fill="#006D0B"/>
<rect x="681.659" y="321.811" width="5.98738" height="41.9116" fill="white"/>
<rect x="585.861" y="243.975" width="53.8864" height="199.616" fill="#006D0B"/>
<rect x="591.848" y="234.994" width="38.918" height="104.779" fill="#006D0B"/>
<rect x="621.358" y="246.143" width="5.98738" height="134.716" fill="white"/>
<rect x="528.981" y="258.943" width="8.98107" height="5.98738" fill="#B90000"/>
<path d="M630.767 232H639.748V243.975H630.767V232Z" fill="#B90000"/>
<rect x="564.905" y="405.634" width="95.798" height="8.98107" fill="#321C03"/>
<rect x="570.893" y="414.615" width="83.8233" height="14.9684" fill="#523718"/>
<rect x="576.88" y="429.583" width="71.8485" height="14.9684" fill="#523718"/>
<line x1="570.893" y1="428.835" x2="654.716" y2="428.835" stroke="#321C03" stroke-width="1.49684"/>
<path d="M70.8034 310.638V312.074H46.8193C37.532 312.074 31.3565 310.638 28.2927 307.766C25.3246 304.894 23.8405 300.154 23.8405 293.548V253.335C23.8405 246.537 25.3724 241.702 28.4363 238.829C31.5001 235.957 37.6278 234.521 46.8193 234.521H70.8034V235.957H46.8193C38.3938 235.957 32.6969 237.298 29.7288 239.978C26.7607 242.564 25.2767 247.016 25.2767 253.335V293.548C25.2767 299.771 26.7129 304.175 29.5852 306.761C32.4576 309.346 38.2023 310.638 46.8193 310.638H70.8034ZM93.0541 281.484V285.936H149.065V281.484C149.065 278.899 148.826 276.505 148.347 274.303C147.964 272.101 147.437 270.042 146.767 268.127L136.857 244.718C135.804 242.228 134.703 240.17 133.554 238.542C132.405 236.819 130.49 235.957 127.81 235.957H113.735C110.863 235.957 108.852 236.819 107.703 238.542C106.554 240.17 105.501 242.181 104.543 244.574L95.3519 268.127C94.6817 270.042 94.1073 272.101 93.6285 274.303C93.2456 276.505 93.0541 278.899 93.0541 281.484ZM149.065 312.074V287.372H93.0541V312.074H91.6179V281.484C91.6179 278.803 91.8094 276.362 92.1924 274.159C92.6711 271.862 93.2934 269.659 94.0594 267.553L103.251 244C104.304 241.319 105.501 239.069 106.841 237.25C108.182 235.431 110.48 234.521 113.735 234.521H127.81C130.969 234.521 133.171 235.431 134.416 237.25C135.756 239.069 137.001 241.367 138.15 244.143L148.06 267.553C148.826 269.659 149.4 271.862 149.783 274.159C150.262 276.362 150.501 278.803 150.501 281.484V312.074H149.065ZM222.808 310.638V312.074H198.824C189.537 312.074 183.361 310.638 180.297 307.766C177.329 304.894 175.845 300.154 175.845 293.548V253.335C175.845 246.537 177.377 241.702 180.441 238.829C183.505 235.957 189.632 234.521 198.824 234.521H222.808V235.957H198.824C190.398 235.957 184.701 237.298 181.733 239.978C178.765 242.564 177.281 247.016 177.281 253.335V293.548C177.281 299.771 178.717 304.175 181.59 306.761C184.462 309.346 190.207 310.638 198.824 310.638H222.808ZM342.07 234.521H343.506V294.409C343.506 299.771 345.373 304.128 349.107 307.479C352.937 310.734 360.166 312.362 370.794 312.362C381.421 312.362 388.65 310.734 392.48 307.479C396.31 304.128 398.224 299.771 398.224 294.409V234.521H399.661V294.409C399.661 300.154 397.65 304.846 393.629 308.484C389.607 312.027 381.996 313.798 370.794 313.798C359.591 313.798 351.98 312.027 347.958 308.484C344.033 304.846 342.07 300.154 342.07 294.409V234.521ZM472.201 234.521V235.957H440.318C436.297 235.957 433.089 237.058 430.695 239.26C428.302 241.462 427.105 244.239 427.105 247.59V259.367C427.105 262.718 427.775 265.064 429.116 266.404C430.456 267.744 432.227 268.606 434.43 268.989L464.733 275.165C467.605 275.739 469.951 276.984 471.77 278.899C473.685 280.814 474.642 284.26 474.642 289.239V297.569C474.642 301.782 473.206 305.277 470.334 308.053C467.462 310.734 463.584 312.074 458.701 312.074H422.94V310.638H458.701C463.105 310.638 466.6 309.441 469.185 307.048C471.866 304.558 473.206 301.399 473.206 297.569V289.239C473.206 284.739 472.392 281.675 470.765 280.048C469.233 278.324 467.126 277.175 464.446 276.601L434.142 270.425C431.653 269.947 429.594 268.989 427.967 267.553C426.435 266.021 425.669 263.292 425.669 259.367V247.59C425.669 243.76 427.009 240.649 429.69 238.255C432.371 235.766 435.914 234.521 440.318 234.521H472.201Z" fill="white"/>
<path d="M70.8034 310.638H73.3098V308.132H70.8034V310.638ZM70.8034 312.074V314.581H73.3098V312.074H70.8034ZM28.2927 307.766L26.5497 309.567L26.564 309.581L26.5785 309.594L28.2927 307.766ZM28.4363 238.829L30.1505 240.658L30.1505 240.658L28.4363 238.829ZM70.8034 234.521H73.3098V232.015H70.8034V234.521ZM70.8034 235.957V238.463H73.3098V235.957H70.8034ZM29.7288 239.978L31.3749 241.868L31.392 241.854L31.4088 241.838L29.7288 239.978ZM29.5852 306.761L27.9086 308.624L29.5852 306.761ZM68.2971 310.638V312.074H73.3098V310.638H68.2971ZM70.8034 309.568H46.8193V314.581H70.8034V309.568ZM46.8193 309.568C42.2872 309.568 38.6274 309.216 35.7899 308.556C32.9294 307.891 31.0936 306.956 30.0068 305.937L26.5785 309.594C28.5555 311.448 31.3395 312.668 34.6545 313.438C37.9926 314.215 42.0642 314.581 46.8193 314.581V309.568ZM30.0356 305.965C27.78 303.782 26.3469 299.869 26.3469 293.548H21.3342C21.3342 300.439 22.8691 306.005 26.5497 309.567L30.0356 305.965ZM26.3469 293.548V253.335H21.3342V293.548H26.3469ZM26.3469 253.335C26.3469 246.815 27.8307 242.833 30.1505 240.658L26.7221 237.001C22.9142 240.571 21.3342 246.259 21.3342 253.335H26.3469ZM30.1505 240.658C31.2407 239.636 33.0683 238.702 35.9018 238.038C38.714 237.379 42.3365 237.027 46.8193 237.027V232.015C42.1106 232.015 38.0735 232.381 34.758 233.158C31.4639 233.93 28.6957 235.151 26.7221 237.001L30.1505 240.658ZM46.8193 237.027H70.8034V232.015H46.8193V237.027ZM68.2971 234.521V235.957H73.3098V234.521H68.2971ZM70.8034 233.451H46.8193V238.463H70.8034V233.451ZM46.8193 233.451C42.4899 233.451 38.7523 233.794 35.6535 234.523C32.5709 235.248 29.9588 236.393 28.0489 238.118L31.4088 241.838C32.4669 240.883 34.1873 240.017 36.8016 239.402C39.3995 238.791 42.7231 238.463 46.8193 238.463V233.451ZM28.0827 238.088C24.3106 241.374 22.7703 246.722 22.7703 253.335H27.783C27.783 247.309 29.2108 243.753 31.3749 241.868L28.0827 238.088ZM22.7703 253.335V293.548H27.783V253.335H22.7703ZM22.7703 293.548C22.7703 300.059 24.2593 305.339 27.9086 308.624L31.2619 304.898C29.1665 303.012 27.783 299.484 27.783 293.548H22.7703ZM27.9086 308.624C29.7888 310.316 32.4078 311.419 35.4978 312.114C38.6129 312.815 42.4026 313.145 46.8193 313.145V308.132C42.619 308.132 39.2278 307.815 36.5982 307.224C33.9435 306.626 32.254 305.791 31.2619 304.898L27.9086 308.624ZM46.8193 313.145H70.8034V308.132H46.8193V313.145ZM93.0541 285.936H90.5477V288.442H93.0541V285.936ZM149.065 285.936V288.442H151.571V285.936H149.065ZM148.347 274.303L145.878 274.732L145.887 274.784L145.898 274.835L148.347 274.303ZM146.767 268.127L149.133 267.299L149.106 267.224L149.075 267.15L146.767 268.127ZM136.857 244.718L134.549 245.694L134.549 245.695L136.857 244.718ZM133.554 238.542L131.469 239.933L131.487 239.96L131.507 239.988L133.554 238.542ZM107.703 238.542L109.751 239.988L109.77 239.96L109.788 239.933L107.703 238.542ZM104.543 244.574L102.216 243.643L102.212 243.653L102.209 243.663L104.543 244.574ZM95.3519 268.127L93.0171 267.216L93.001 267.258L92.9863 267.299L95.3519 268.127ZM93.6285 274.303L91.1794 273.771L91.1682 273.822L91.1593 273.874L93.6285 274.303ZM149.065 312.074H146.559V314.581H149.065V312.074ZM149.065 287.372H151.571V284.866H149.065V287.372ZM93.0541 287.372V284.866H90.5477V287.372H93.0541ZM93.0541 312.074V314.581H95.5604V312.074H93.0541ZM91.6179 312.074H89.1115V314.581H91.6179V312.074ZM92.1924 274.159L89.7387 273.648L89.7302 273.689L89.7231 273.73L92.1924 274.159ZM94.0594 267.553L91.7245 266.642L91.7139 266.669L91.7039 266.696L94.0594 267.553ZM103.251 244L100.918 243.083L100.916 243.089L103.251 244ZM106.841 237.25L108.859 238.736V238.736L106.841 237.25ZM134.416 237.25L132.347 238.665L132.372 238.701L132.398 238.736L134.416 237.25ZM138.15 244.143L135.834 245.102L135.838 245.111L135.842 245.12L138.15 244.143ZM148.06 267.553L150.415 266.696L150.393 266.636L150.368 266.576L148.06 267.553ZM149.783 274.159L147.311 274.571L147.321 274.632L147.334 274.692L149.783 274.159ZM150.501 312.074V314.581H153.007V312.074H150.501ZM90.5477 281.484V285.936H95.5604V281.484H90.5477ZM93.0541 288.442H149.065V283.43H93.0541V288.442ZM151.571 285.936V281.484H146.559V285.936H151.571ZM151.571 281.484C151.571 278.745 151.318 276.171 150.796 273.771L145.898 274.835C146.333 276.839 146.559 279.052 146.559 281.484H151.571ZM150.816 273.874C150.412 271.549 149.853 269.356 149.133 267.299L144.401 268.955C145.022 270.728 145.516 272.652 145.878 274.732L150.816 273.874ZM149.075 267.15L139.165 243.741L134.549 245.695L144.459 269.104L149.075 267.15ZM139.166 243.741C138.066 241.141 136.883 238.912 135.602 237.097L131.507 239.988C132.523 241.427 133.543 243.316 134.549 245.694L139.166 243.741ZM135.64 237.152C133.891 234.529 131.052 233.451 127.81 233.451V238.463C129.929 238.463 130.919 239.109 131.469 239.933L135.64 237.152ZM127.81 233.451H113.735V238.463H127.81V233.451ZM113.735 233.451C110.379 233.451 107.398 234.481 105.618 237.152L109.788 239.933C110.306 239.157 111.347 238.463 113.735 238.463V233.451ZM105.655 237.097C104.366 238.923 103.227 241.118 102.216 243.643L106.871 245.505C107.775 243.243 108.742 241.417 109.751 239.988L105.655 237.097ZM102.209 243.663L93.0171 267.216L97.6868 269.039L106.878 245.485L102.209 243.663ZM92.9863 267.299C92.2788 269.321 91.6775 271.479 91.1794 273.771L96.0777 274.835C96.537 272.723 97.0847 270.764 97.7176 268.955L92.9863 267.299ZM91.1593 273.874C90.7481 276.237 90.5477 278.777 90.5477 281.484H95.5604C95.5604 279.021 95.743 276.773 96.0978 274.732L91.1593 273.874ZM151.571 312.074V287.372H146.559V312.074H151.571ZM149.065 284.866H93.0541V289.879H149.065V284.866ZM90.5477 287.372V312.074H95.5604V287.372H90.5477ZM93.0541 309.568H91.6179V314.581H93.0541V309.568ZM94.1242 312.074V281.484H89.1115V312.074H94.1242ZM94.1242 281.484C94.1242 278.92 94.3076 276.624 94.6616 274.589L89.7231 273.73C89.3111 276.099 89.1115 278.687 89.1115 281.484H94.1242ZM94.646 274.671C95.1014 272.485 95.6917 270.398 96.4148 268.41L91.7039 266.696C90.8951 268.921 90.2407 271.239 89.7387 273.648L94.646 274.671ZM96.3942 268.464L105.586 244.911L100.916 243.089L91.7245 266.642L96.3942 268.464ZM105.584 244.916C106.578 242.386 107.678 240.34 108.859 238.736L104.824 235.763C103.324 237.798 102.03 240.252 100.918 243.083L105.584 244.916ZM108.859 238.736C109.544 237.808 110.905 237.027 113.735 237.027V232.015C110.054 232.015 106.82 233.053 104.824 235.763L108.859 238.736ZM113.735 237.027H127.81V232.015H113.735V237.027ZM127.81 237.027C130.527 237.027 131.752 237.794 132.347 238.665L136.484 235.834C134.591 233.067 131.412 232.015 127.81 232.015V237.027ZM132.398 238.736C133.586 240.349 134.739 242.455 135.834 245.102L140.466 243.185C139.263 240.278 137.927 237.789 136.434 235.763L132.398 238.736ZM135.842 245.12L145.752 268.53L150.368 266.576L140.458 243.166L135.842 245.12ZM145.704 268.41C146.416 270.366 146.952 272.419 147.311 274.571L152.255 273.747C151.848 271.304 151.235 268.953 150.415 266.696L145.704 268.41ZM147.334 274.692C147.768 276.69 147.995 278.949 147.995 281.484H153.007C153.007 278.657 152.755 276.033 152.232 273.627L147.334 274.692ZM147.995 281.484V312.074H153.007V281.484H147.995ZM150.501 309.568H149.065V314.581H150.501V309.568ZM222.808 310.638H225.314V308.132H222.808V310.638ZM222.808 312.074V314.581H225.314V312.074H222.808ZM180.297 307.766L178.554 309.567L178.569 309.581L178.583 309.594L180.297 307.766ZM180.441 238.829L182.155 240.658V240.658L180.441 238.829ZM222.808 234.521H225.314V232.015H222.808V234.521ZM222.808 235.957V238.463H225.314V235.957H222.808ZM181.733 239.978L183.38 241.868L183.397 241.854L183.413 241.838L181.733 239.978ZM181.59 306.761L179.913 308.624L181.59 306.761ZM220.302 310.638V312.074H225.314V310.638H220.302ZM222.808 309.568H198.824V314.581H222.808V309.568ZM198.824 309.568C194.292 309.568 190.632 309.216 187.794 308.556C184.934 307.891 183.098 306.956 182.011 305.937L178.583 309.594C180.56 311.448 183.344 312.668 186.659 313.438C189.997 314.215 194.069 314.581 198.824 314.581V309.568ZM182.04 305.965C179.785 303.782 178.351 299.869 178.351 293.548H173.339C173.339 300.439 174.874 306.005 178.554 309.567L182.04 305.965ZM178.351 293.548V253.335H173.339V293.548H178.351ZM178.351 253.335C178.351 246.815 179.835 242.833 182.155 240.658L178.727 237.001C174.919 240.571 173.339 246.259 173.339 253.335H178.351ZM182.155 240.658C183.245 239.636 185.073 238.702 187.906 238.038C190.719 237.379 194.341 237.027 198.824 237.027V232.015C194.115 232.015 190.078 232.381 186.763 233.158C183.468 233.93 180.7 235.151 178.727 237.001L182.155 240.658ZM198.824 237.027H222.808V232.015H198.824V237.027ZM220.302 234.521V235.957H225.314V234.521H220.302ZM222.808 233.451H198.824V238.463H222.808V233.451ZM198.824 233.451C194.495 233.451 190.757 233.794 187.658 234.523C184.576 235.248 181.963 236.393 180.053 238.118L183.413 241.838C184.471 240.883 186.192 240.017 188.806 239.402C191.404 238.791 194.728 238.463 198.824 238.463V233.451ZM180.087 238.088C176.315 241.374 174.775 246.722 174.775 253.335H179.788C179.788 247.309 181.215 243.753 183.38 241.868L180.087 238.088ZM174.775 253.335V293.548H179.788V253.335H174.775ZM174.775 293.548C174.775 300.059 176.264 305.339 179.913 308.624L183.266 304.898C181.171 303.012 179.788 299.484 179.788 293.548H174.775ZM179.913 308.624C181.793 310.316 184.412 311.419 187.502 312.114C190.617 312.815 194.407 313.145 198.824 313.145V308.132C194.624 308.132 191.232 307.815 188.603 307.224C185.948 306.626 184.259 305.791 183.266 304.898L179.913 308.624ZM198.824 313.145H222.808V308.132H198.824V313.145ZM342.07 234.521V232.015H339.564V234.521H342.07ZM343.506 234.521H346.013V232.015H343.506V234.521ZM349.107 307.479L347.433 309.344L347.458 309.367L347.484 309.388L349.107 307.479ZM392.48 307.479L394.103 309.388L394.117 309.377L394.13 309.365L392.48 307.479ZM398.224 234.521V232.015H395.718V234.521H398.224ZM399.661 234.521H402.167V232.015H399.661V234.521ZM393.629 308.484L395.285 310.365L395.298 310.354L395.31 310.343L393.629 308.484ZM347.958 308.484L346.255 310.322L346.278 310.344L346.302 310.365L347.958 308.484ZM342.07 237.027H343.506V232.015H342.07V237.027ZM341 234.521V294.409H346.013V234.521H341ZM341 294.409C341 300.428 343.13 305.482 347.433 309.344L350.781 305.613C347.617 302.773 346.013 299.115 346.013 294.409H341ZM347.484 309.388C349.82 311.374 353.014 312.722 356.851 313.586C360.705 314.454 365.367 314.868 370.794 314.868V309.855C365.592 309.855 361.326 309.456 357.952 308.696C354.559 307.932 352.225 306.839 350.73 305.569L347.484 309.388ZM370.794 314.868C376.22 314.868 380.882 314.454 384.736 313.586C388.573 312.722 391.767 311.374 394.103 309.388L390.857 305.569C389.362 306.839 387.028 307.932 383.635 308.696C380.261 309.456 375.995 309.855 370.794 309.855V314.868ZM394.13 309.365C398.536 305.51 400.731 300.45 400.731 294.409H395.718C395.718 299.092 394.083 302.746 390.829 305.592L394.13 309.365ZM400.731 294.409V234.521H395.718V294.409H400.731ZM398.224 237.027H399.661V232.015H398.224V237.027ZM397.154 234.521V294.409H402.167V234.521H397.154ZM397.154 294.409C397.154 299.493 395.409 303.493 391.947 306.625L395.31 310.343C399.891 306.198 402.167 300.815 402.167 294.409H397.154ZM391.972 306.603C390.382 308.004 387.91 309.196 384.336 310.028C380.777 310.856 376.278 311.291 370.794 311.291V316.304C376.511 316.304 381.419 315.854 385.472 314.91C389.509 313.971 392.854 312.507 395.285 310.365L391.972 306.603ZM370.794 311.291C365.309 311.291 360.81 310.856 357.251 310.028C353.677 309.196 351.205 308.004 349.615 306.603L346.302 310.365C348.733 312.507 352.078 313.971 356.115 314.91C360.168 315.854 365.076 316.304 370.794 316.304V311.291ZM349.662 306.646C346.289 303.519 344.576 299.514 344.576 294.409H339.564C339.564 300.795 341.777 306.172 346.255 310.322L349.662 306.646ZM344.576 294.409V234.521H339.564V294.409H344.576ZM472.201 234.521H474.707V232.015H472.201V234.521ZM472.201 235.957V238.463H474.707V235.957H472.201ZM429.116 266.404L430.888 264.632V264.632L429.116 266.404ZM434.43 268.989L434.93 266.533L434.895 266.526L434.859 266.52L434.43 268.989ZM464.733 275.165L464.232 277.621L464.241 277.622L464.733 275.165ZM471.77 278.899L469.953 280.625L469.975 280.648L469.998 280.671L471.77 278.899ZM470.334 308.053L472.044 309.885L472.06 309.87L472.076 309.855L470.334 308.053ZM422.94 312.074H420.434V314.581H422.94V312.074ZM422.94 310.638V308.132H420.434V310.638H422.94ZM469.185 307.048L470.888 308.887L470.89 308.884L469.185 307.048ZM470.765 280.048L468.892 281.713L468.94 281.768L468.993 281.82L470.765 280.048ZM464.446 276.601L464.971 274.15L464.958 274.148L464.946 274.145L464.446 276.601ZM434.142 270.425L434.643 267.969L434.629 267.967L434.616 267.964L434.142 270.425ZM427.967 267.553L426.194 269.325L426.25 269.381L426.309 269.432L427.967 267.553ZM429.69 238.255L431.359 240.125L431.378 240.108L431.396 240.092L429.69 238.255ZM469.695 234.521V235.957H474.707V234.521H469.695ZM472.201 233.451H440.318V238.463H472.201V233.451ZM440.318 233.451C435.823 233.451 431.958 234.693 428.999 237.416L432.392 241.105C434.22 239.423 436.77 238.463 440.318 238.463V233.451ZM428.999 237.416C426.072 240.109 424.599 243.562 424.599 247.59H429.611C429.611 244.916 430.532 242.816 432.392 241.105L428.999 237.416ZM424.599 247.59V259.367H429.611V247.59H424.599ZM424.599 259.367C424.599 262.913 425.281 266.114 427.343 268.176L430.888 264.632C430.269 264.013 429.611 262.523 429.611 259.367H424.599ZM427.343 268.176C429.111 269.944 431.383 271.003 434 271.458L434.859 266.52C433.072 266.209 431.801 265.545 430.888 264.632L427.343 268.176ZM433.929 271.445L464.232 277.621L465.233 272.709L434.93 266.533L433.929 271.445ZM464.241 277.622C466.665 278.107 468.528 279.125 469.953 280.625L473.587 277.173C471.374 274.842 468.546 273.371 465.224 272.707L464.241 277.622ZM469.998 280.671C471.178 281.851 472.136 284.421 472.136 289.239H477.149C477.149 284.1 476.192 279.776 473.542 277.127L469.998 280.671ZM472.136 289.239V297.569H477.149V289.239H472.136ZM472.136 297.569C472.136 301.144 470.947 303.975 468.592 306.251L472.076 309.855C475.466 306.578 477.149 302.42 477.149 297.569H472.136ZM468.624 306.221C466.321 308.37 463.11 309.568 458.701 309.568V314.581C464.057 314.581 468.602 313.098 472.044 309.885L468.624 306.221ZM458.701 309.568H422.94V314.581H458.701V309.568ZM425.446 312.074V310.638H420.434V312.074H425.446ZM422.94 313.145H458.701V308.132H422.94V313.145ZM458.701 313.145C463.572 313.145 467.731 311.81 470.888 308.887L467.482 305.209C465.469 307.073 462.639 308.132 458.701 308.132V313.145ZM470.89 308.884C474.108 305.896 475.713 302.059 475.713 297.569H470.7C470.7 300.739 469.623 303.221 467.48 305.211L470.89 308.884ZM475.713 297.569V289.239H470.7V297.569H475.713ZM475.713 289.239C475.713 284.632 474.919 280.658 472.537 278.275L468.993 281.82C469.865 282.693 470.7 284.847 470.7 289.239H475.713ZM472.638 278.383C470.689 276.189 468.072 274.815 464.971 274.15L463.92 279.052C466.181 279.536 467.777 280.459 468.892 281.713L472.638 278.383ZM464.946 274.145L434.643 267.969L433.642 272.881L463.945 279.057L464.946 274.145ZM434.616 267.964C432.491 267.556 430.864 266.767 429.625 265.674L426.309 269.432C428.325 271.211 430.814 272.338 433.669 272.887L434.616 267.964ZM429.739 265.781C428.937 264.979 428.175 263.119 428.175 259.367H423.163C423.163 263.466 423.932 267.063 426.194 269.325L429.739 265.781ZM428.175 259.367V247.59H423.163V259.367H428.175ZM428.175 247.59C428.175 244.421 429.249 242.009 431.359 240.125L428.021 236.385C424.769 239.289 423.163 243.099 423.163 247.59H428.175ZM431.396 240.092C433.522 238.117 436.41 237.027 440.318 237.027V232.015C435.417 232.015 431.22 233.414 427.985 236.418L431.396 240.092ZM440.318 237.027H472.201V232.015H440.318V237.027Z" fill="white"/>
<path d="M371.199 439.297V440.733H322.8V363.18H371.199V364.616H324.236V400.664H359.566V402.1H324.236V439.297H371.199ZM439.764 439.297V440.733H415.78C406.492 440.733 400.317 439.297 397.253 436.425C394.285 433.552 392.801 428.813 392.801 422.207V381.994C392.801 375.196 394.333 370.361 397.397 367.488C400.461 364.616 406.588 363.18 415.78 363.18H439.764V364.616H415.78C407.354 364.616 401.657 365.956 398.689 368.637C395.721 371.222 394.237 375.675 394.237 381.994V422.207C394.237 428.43 395.673 432.834 398.546 435.419C401.418 438.005 407.163 439.297 415.78 439.297H439.764ZM463.02 440.733V363.18H464.456V401.238H519.605V363.18H521.041V440.733H519.605V402.675H464.456V440.733H463.02Z" fill="white"/>
<path d="M371.199 439.297H373.705V436.791H371.199V439.297ZM371.199 440.733V443.24H373.705V440.733H371.199ZM322.8 440.733H320.293V443.24H322.8V440.733ZM322.8 363.18V360.673H320.293V363.18H322.8ZM371.199 363.18H373.705V360.673H371.199V363.18ZM371.199 364.616V367.122H373.705V364.616H371.199ZM324.236 364.616V362.11H321.73V364.616H324.236ZM324.236 400.664H321.73V403.17H324.236V400.664ZM359.566 400.664H362.072V398.158H359.566V400.664ZM359.566 402.1V404.607H362.072V402.1H359.566ZM324.236 402.1V399.594H321.73V402.1H324.236ZM324.236 439.297H321.73V441.803H324.236V439.297ZM368.692 439.297V440.733H373.705V439.297H368.692ZM371.199 438.227H322.8V443.24H371.199V438.227ZM325.306 440.733V363.18H320.293V440.733H325.306ZM322.8 365.686H371.199V360.673H322.8V365.686ZM368.692 363.18V364.616H373.705V363.18H368.692ZM371.199 362.11H324.236V367.122H371.199V362.11ZM321.73 364.616V400.664H326.742V364.616H321.73ZM324.236 403.17H359.566V398.158H324.236V403.17ZM357.059 400.664V402.1H362.072V400.664H357.059ZM359.566 399.594H324.236V404.607H359.566V399.594ZM321.73 402.1V439.297H326.742V402.1H321.73ZM324.236 441.803H371.199V436.791H324.236V441.803ZM439.764 439.297H442.27V436.791H439.764V439.297ZM439.764 440.733V443.24H442.27V440.733H439.764ZM397.253 436.425L395.51 438.226L395.524 438.24L395.539 438.253L397.253 436.425ZM397.397 367.488L399.111 369.317V369.317L397.397 367.488ZM439.764 363.18H442.27V360.673H439.764V363.18ZM439.764 364.616V367.122H442.27V364.616H439.764ZM398.689 368.637L400.335 370.527L400.352 370.512L400.369 370.497L398.689 368.637ZM398.546 435.419L396.869 437.282L398.546 435.419ZM437.258 439.297V440.733H442.27V439.297H437.258ZM439.764 438.227H415.78V443.24H439.764V438.227ZM415.78 438.227C411.248 438.227 407.588 437.875 404.75 437.215C401.89 436.55 400.054 435.615 398.967 434.596L395.539 438.253C397.516 440.107 400.3 441.326 403.615 442.097C406.953 442.874 411.025 443.24 415.78 443.24V438.227ZM398.996 434.624C396.74 432.441 395.307 428.528 395.307 422.207H390.295C390.295 429.098 391.83 434.664 395.51 438.226L398.996 434.624ZM395.307 422.207V381.994H390.295V422.207H395.307ZM395.307 381.994C395.307 375.474 396.791 371.492 399.111 369.317L395.682 365.66C391.875 369.23 390.295 374.918 390.295 381.994H395.307ZM399.111 369.317C400.201 368.295 402.029 367.361 404.862 366.697C407.674 366.038 411.297 365.686 415.78 365.686V360.673C411.071 360.673 407.034 361.04 403.718 361.817C400.424 362.589 397.656 363.81 395.682 365.66L399.111 369.317ZM415.78 365.686H439.764V360.673H415.78V365.686ZM437.258 363.18V364.616H442.27V363.18H437.258ZM439.764 362.11H415.78V367.122H439.764V362.11ZM415.78 362.11C411.45 362.11 407.713 362.452 404.614 363.182C401.531 363.907 398.919 365.052 397.009 366.777L400.369 370.497C401.427 369.542 403.148 368.676 405.762 368.061C408.36 367.45 411.684 367.122 415.78 367.122V362.11ZM397.043 366.747C393.271 370.033 391.731 375.381 391.731 381.994H396.743C396.743 375.968 398.171 372.412 400.335 370.527L397.043 366.747ZM391.731 381.994V422.207H396.743V381.994H391.731ZM391.731 422.207C391.731 428.717 393.22 433.998 396.869 437.282L400.222 433.556C398.127 431.671 396.743 428.143 396.743 422.207H391.731ZM396.869 437.282C398.749 438.975 401.368 440.078 404.458 440.773C407.573 441.474 411.363 441.803 415.78 441.803V436.791C411.579 436.791 408.188 436.474 405.559 435.882C402.904 435.285 401.214 434.449 400.222 433.556L396.869 437.282ZM415.78 441.803H439.764V436.791H415.78V441.803ZM463.02 440.733H460.513V443.24H463.02V440.733ZM463.02 363.18V360.673H460.513V363.18H463.02ZM464.456 363.18H466.962V360.673H464.456V363.18ZM464.456 401.238H461.95V403.745H464.456V401.238ZM519.605 401.238V403.745H522.111V401.238H519.605ZM519.605 363.18V360.673H517.099V363.18H519.605ZM521.041 363.18H523.548V360.673H521.041V363.18ZM521.041 440.733V443.24H523.548V440.733H521.041ZM519.605 440.733H517.099V443.24H519.605V440.733ZM519.605 402.675H522.111V400.168H519.605V402.675ZM464.456 402.675V400.168H461.95V402.675H464.456ZM464.456 440.733V443.24H466.962V440.733H464.456ZM465.526 440.733V363.18H460.513V440.733H465.526ZM463.02 365.686H464.456V360.673H463.02V365.686ZM461.95 363.18V401.238H466.962V363.18H461.95ZM464.456 403.745H519.605V398.732H464.456V403.745ZM522.111 401.238V363.18H517.099V401.238H522.111ZM519.605 365.686H521.041V360.673H519.605V365.686ZM518.535 363.18V440.733H523.548V363.18H518.535ZM521.041 438.227H519.605V443.24H521.041V438.227ZM522.111 440.733V402.675H517.099V440.733H522.111ZM519.605 400.168H464.456V405.181H519.605V400.168ZM461.95 402.675V440.733H466.962V402.675H461.95ZM464.456 438.227H463.02V443.24H464.456V438.227Z" fill="white"/>
<line x1="280.615" y1="444.781" x2="280.615" y2="237.972" stroke="white" stroke-width="6.68359"/>
<line x1="232.255" y1="234.621" x2="332.787" y2="234.621" stroke="white" stroke-width="6.68359"/>
</svg>
